<svg xmlns="http://www.w3.org/2000/svg" version="1.1" xmlns:xlink="http://www.w3.org/1999/xlink" width="512" height="512" x="0" y="0" viewBox="0 0 60 60" style="enable-background:new 0 0 512 512" xml:space="preserve" class=""><g><path fill="#f48668" d="M22.2 5H55a4 4 0 0 1 4 4v9.961a1.064 1.064 0 0 1-1.57.94 7 7 0 1 0 .01 12.2 1.056 1.056 0 0 1 1.56.94V43a4 4 0 0 1-4 4h-9.96a1.056 1.056 0 0 0-.94 1.56 7.049 7.049 0 0 1 .75 4.89 7 7 0 1 1-12.95-4.88 1.064 1.064 0 0 0-.94-1.57H21a4 4 0 0 1-4-4V28z" opacity="1" data-original="#6ac579" class=""></path><path fill="#3C3C3A" d="m21.043 3.208 11.171 17.3A4.852 4.852 0 0 1 28.17 28H5.83a4.852 4.852 0 0 1-4.044-7.494l11.171-17.3a4.806 4.806 0 0 1 8.086.002z" opacity="1" data-original="#d8415e" class=""></path><g fill="#FFFFFF"><path d="M17 19a1 1 0 0 1-1-1V6a1 1 0 0 1 2 0v12a1 1 0 0 1-1 1zM17 24a1 1 0 0 1-1-1v-1a1 1 0 0 1 2 0v1a1 1 0 0 1-1 1z" fill="#FFFFFF" opacity="1" data-original="#ffffff" class=""></path></g></g></svg>